<mxfile host="app.diagrams.net" modified="2024-05-17T06:26:48.837Z" agent="Mozilla/5.0 (Macintosh; Intel Mac OS X 10_15_7) AppleWebKit/537.36 (KHTML, like Gecko) Chrome/124.0.0.0 Safari/537.36" version="24.4.3" etag="UDjNtuwoZlcCZ4wOYG4U" type="github">
  <diagram name="Page-1" id="wo1l6ZMtn6_RL5Mom8r1">
    <mxGraphModel>
      <root>
        <mxCell id="0" />
        <mxCell id="1" parent="0" />
      </root>
    </mxGraphModel>
  </diagram>
</mxfile>
